<svg id="Layer_1" data-name="Layer 1" xmlns="http://www.w3.org/2000/svg" viewBox="0 0 110.13 107.08"><defs><style>.cls-1{fill:#0039ff;}</style></defs><path class="cls-1" d="M89.19,21.94H129.8V62.33c-1.14,4.38-4.2,7.32-8.52,7-3.92-.25-6.32-3.09-7.33-7V37.79H89.19c-4.5-1.29-7.39-4.53-7-8.86C82.6,25.2,85.37,23,89.19,21.94Z" transform="translate(-19.68 -21.83)"/><path class="cls-1" d="M19.68,88.3v40.62H60.07c4.38-1.15,7.32-4.21,7.05-8.53-.25-3.92-3.1-6.31-7.05-7.33H35.53V88.3c-1.29-4.5-4.53-7.39-8.86-7C22.94,81.72,20.73,84.49,19.68,88.3Z" transform="translate(-19.68 -21.83)"/><path class="cls-1" d="M60.3,21.83l-40.62.28L20,62.5c1.18,4.37,3.26,7.29,7.58,7a9.34,9.34,0,0,0,8.28-7.1c-.06-8.61-.1-15.93-.16-24.54l24.76-.16c4.49-1.32,7.35-4.58,6.89-8.91C66.91,25,64.12,22.86,60.3,21.83Z" transform="translate(-19.68 -21.83)"/><path class="cls-1" d="M89.64,128.82l37.07,0a3.08,3.08,0,0,0,3.08-3.08l0-36.85a3.06,3.06,0,0,0-.13-.9c-1.29-4.14-4.22-6.87-8.4-6.61-3.77.24-6.06,2.88-7.21,6.61a2.88,2.88,0,0,0-.12.88v19c0,1.7-1.38,5.08-3.08,5.08l-21.19,0a3.17,3.17,0,0,0-1,.15c-4.22,1.44-6.9,4.53-6.49,8.71.36,3.58,2.92,5.68,6.49,6.86A3.26,3.26,0,0,0,89.64,128.82Z" transform="translate(-19.68 -21.83)"/></svg>