<?xml version="1.0" encoding="UTF-8"?>
<svg id="Layer_1" data-name="Layer 1" xmlns="http://www.w3.org/2000/svg" width="483.25" height="366.19" viewBox="0 0 483.25 366.19">
  <defs>
    <style>
      .cls-1 {
        fill: #010101;
      }
    </style>
  </defs>
  <path class="cls-1" d="M401.96,124.74c-23.83,0-47.69-.7-71.49,.16-36.15,1.32-64.9,32.38-65.68,69.12-.96,45.69-21.23,80.27-60.86,103.17-14.81,8.55-31.03,12.88-48.04,14.05-2.97,.2-4.02,1.42-4.96,3.93-12.27,32.92-44.96,53.78-79.26,50.71-35.37-3.17-63.91-29-70.38-63.7-7.24-38.85,16.72-77.72,54.73-88.78,38.25-11.13,78.92,8.41,93.95,45.16,.79,1.93,1.5,3.89,2.38,6.18,22.31-1.99,40.16-11.7,53.12-29.96,8.39-11.81,12.44-25.14,12.64-39.63,.79-56.79,37.57-102.37,92.91-114.58,8.15-1.8,16.69-2.4,25.07-2.54,20.43-.35,40.87-.12,61.31-.12,1.56,0,3.12,0,5.74,0-8.6-8.6-16.46-16.46-24.32-24.32-4.24-4.24-8.52-8.46-12.72-12.74-10.05-10.24-10.46-24.35-1.03-33.85,9.6-9.67,23.83-9.33,34.19,.99,23.67,23.58,47.34,47.17,70.83,70.92,4.26,4.3,8.88,8.9,11.23,14.29,3.95,9.03,1.63,17.87-5.42,24.93-25.67,25.72-51.37,51.4-77.2,76.95-12.02,11.89-30.33,9.21-37.8-5.24-4.82-9.32-3.17-19.66,4.71-27.65,11.5-11.67,23.14-23.2,34.75-34.76,.66-.66,1.65-.99,2.48-1.48l-.89-1.23ZM78.19,257.06c-17.23-.1-31.32,13.84-31.37,31.03-.05,17.02,13.72,31.06,30.66,31.26,17.26,.2,31.47-13.64,31.62-30.79,.15-17.26-13.72-31.4-30.9-31.5Z"/>
</svg>