<?xml version="1.0" encoding="UTF-8"?>
<svg id="Layer_1" data-name="Layer 1" xmlns="http://www.w3.org/2000/svg" width="505.52" height="505.62" viewBox="0 0 505.52 505.62">
  <defs>
    <style>
      .cls-1 {
        fill: #010101;
      }
    </style>
  </defs>
  <path class="cls-1" d="M505.52,173.82c-2.26,3.32-4.05,7.11-6.85,9.88-8.53,8.45-20.6,7.9-29.86-1.22-14.29-14.1-28.43-28.35-42.58-42.59-1.26-1.27-2.14-2.93-3.29-4.55-12.75,12.74-24.62,24.6-36.47,36.46-23.62,23.62-47.23,47.25-70.85,70.87-7.79,7.79-12.54,7.78-20.36-.03-10.83-10.82-21.65-21.64-32.46-32.47-7.56-7.57-7.58-12.47-.05-20.01,35.46-35.51,70.94-71,107.83-107.92-1.6-.91-3.45-1.51-4.68-2.74-14.38-14.25-28.76-28.49-42.94-42.93-10.1-10.29-9.27-24.63,2.09-32.37,3.45-2.35,8.18-3.97,12.33-4C386.24-.07,435.11,0,483.98,.05c11.38,.01,17.73,6.85,21.55,16.76V173.82Z"/>
  <path class="cls-1" d="M15.84,505.62c-6.89-3.65-13.32-7.78-15.06-16.17-.49-2.39-.71-4.88-.71-7.32C.04,434.56,.11,387,0,339.44c-.02-10.09,3.95-17.52,13.16-21.72,8.31-3.79,16.66-1.54,24.49,6.25,15.15,15.08,30.27,30.2,45.63,45.54,1.35-1.29,2.64-2.47,3.88-3.7,34.09-34.1,68.17-68.2,102.25-102.3,8.48-8.48,12.93-8.48,21.4-.01,10.59,10.59,21.18,21.17,31.76,31.77,7.83,7.84,7.86,12.6,.1,20.36-34.2,34.22-68.4,68.43-102.62,102.63-1.28,1.27-2.74,2.36-4.38,3.76,9.15,9.15,17.86,17.86,26.58,26.57,6.75,6.75,13.59,13.41,20.22,20.27,12.53,12.97,8.05,30.43-9.14,36.01-.23,.07-.34,.49-.51,.74H15.84Z"/>
</svg>